<svg xmlns="http://www.w3.org/2000/svg" viewBox="0 0 800 1000">
  <rect width="800" height="1000" fill="#e7e0d4"/>
  <rect width="800" height="1000" fill="url(#g1)"/>
  <defs>
    <linearGradient id="g1" x1="0" y1="0" x2="1" y2="1">
      <stop offset="0" stop-color="#efe9dd"/><stop offset="1" stop-color="#d9cfbc"/>
    </linearGradient>
  </defs>
  <g stroke="#1c1a17" stroke-width="3" fill="none">
    <rect x="120" y="420" width="560" height="300"/>
    <line x1="120" y1="520" x2="680" y2="520"/>
    <rect x="170" y="560" width="130" height="160"/>
    <rect x="350" y="560" width="220" height="160" fill="#1c1a17" opacity="0.85"/>
    <line x1="120" y1="420" x2="260" y2="300"/>
    <line x1="260" y1="300" x2="680" y2="300"/>
    <line x1="680" y1="300" x2="680" y2="420"/>
  </g>
  <circle cx="600" cy="200" r="56" fill="#a87b4f"/>
  <g stroke="#1c1a17" stroke-width="2" opacity="0.5">
    <line x1="80" y1="780" x2="720" y2="780"/>
    <line x1="80" y1="800" x2="720" y2="800"/>
  </g>
  <g fill="none" stroke="#6f6a5f" stroke-width="2" opacity="0.7">
    <path d="M140 880 q20 -40 40 0 q20 -40 40 0"/>
    <path d="M620 880 q20 -40 40 0"/>
  </g>
</svg>
