<svg xmlns="http://www.w3.org/2000/svg" viewBox="0 0 800 1000">
  <rect width="800" height="1000" fill="#efe9dd"/>
  <g stroke="#1c1a17" stroke-width="3" fill="none">
    <path d="M120 720 L120 340 L560 240 L560 720 Z"/>
    <line x1="120" y1="340" x2="560" y2="440"/>
    <line x1="120" y1="720" x2="680" y2="720"/>
    <line x1="560" y1="240" x2="680" y2="300"/>
    <line x1="680" y1="300" x2="680" y2="720"/>
    <line x1="560" y1="440" x2="680" y2="480"/>
  </g>
  <g fill="#1c1a17">
    <rect x="170" y="520" width="120" height="10"/>
    <rect x="180" y="530" width="8" height="90"/>
    <rect x="272" y="530" width="8" height="90"/>
    <rect x="340" y="480" width="150" height="8" transform="rotate(6 340 480)"/>
  </g>
  <rect x="300" y="120" width="200" height="60" fill="#a87b4f"/>
  <text x="316" y="162" font-family="Georgia, serif" font-size="34" fill="#efe9dd">atölye</text>
  <g stroke="#6f6a5f" stroke-width="2" opacity="0.6" fill="none">
    <circle cx="640" cy="600" r="34"/>
    <line x1="640" y1="634" x2="640" y2="700"/>
  </g>
  <g stroke="#1c1a17" stroke-width="2" opacity="0.35">
    <line x1="120" y1="820" x2="680" y2="820"/>
    <line x1="120" y1="844" x2="520" y2="844"/>
  </g>
</svg>
