<svg xmlns="http://www.w3.org/2000/svg" viewBox="0 0 800 1000">
  <rect width="800" height="1000" fill="#26221d"/>
  <g fill="none" stroke="#efe9dd" stroke-width="3">
    <path d="M120 300 q280 -140 560 0"/>
    <path d="M120 300 v420 h560 v-420"/>
  </g>
  <g fill="#efe9dd" opacity="0.9">
    <path d="M160 700 h480 l-40 -60 h-400 z" opacity="0.25"/>
    <rect x="200" y="560" width="400" height="14" rx="7"/>
    <rect x="230" y="600" width="340" height="14" rx="7" opacity="0.75"/>
    <rect x="260" y="640" width="280" height="14" rx="7" opacity="0.5"/>
  </g>
  <g fill="#a87b4f">
    <rect x="150" y="330" width="24" height="160" rx="4"/>
    <rect x="190" y="310" width="24" height="180" rx="4"/>
    <rect x="586" y="310" width="24" height="180" rx="4"/>
    <rect x="626" y="330" width="24" height="160" rx="4"/>
  </g>
  <circle cx="400" cy="430" r="8" fill="#a87b4f"/>
  <g stroke="#a87b4f" stroke-width="2" fill="none" opacity="0.6">
    <path d="M400 430 L250 560"/><path d="M400 430 L550 560"/><path d="M400 430 L400 560"/>
  </g>
  <text x="120" y="860" font-family="Georgia, serif" font-size="30" fill="#efe9dd" opacity="0.5">RT 60 · 1.1 sn</text>
</svg>
